HIERARCHY
ROOT Hips
{
	OFFSET -3.958830 18.904000 13.208200
	CHANNELS 6 Xposition Yposition Zposition Zrotation Yrotation Xrotation 
	JOINT LHipJoint
	{
		OFFSET 0.000000 0.000000 0.000000
		CHANNELS 3 Zrotation Yrotation Xrotation
		JOINT LeftUpLeg
		{
			OFFSET 1.800000 -1.400000 0.085000
			CHANNELS 3 Zrotation Yrotation Xrotation
			JOINT LeftLeg
			{
				OFFSET 2.215000 -6.000000 0.000000
				CHANNELS 3 Zrotation Yrotation Xrotation
				JOINT LeftFoot
				{
					OFFSET 2.500000 -6.900000 0.000000
					CHANNELS 3 Zrotation Yrotation Xrotation
					JOINT LeftToeBase
					{
						OFFSET 0.200000 -0.500000 1.950000
						CHANNELS 3 Zrotation Yrotation Xrotation
						End Site
						{
							OFFSET 0.000000 0.000000 0.000000
						}
					}
				}
			}
		}
	}
	JOINT RHipJoint
	{
		OFFSET 0.000000 0.000000 0.000000
		CHANNELS 3 Zrotation Yrotation Xrotation
		JOINT RightUpLeg
		{
			OFFSET -1.800000 -1.400000 0.085000
			CHANNELS 3 Zrotation Yrotation Xrotation
			JOINT RightLeg
			{
				OFFSET -2.215000 -6.000000 0.000000
				CHANNELS 3 Zrotation Yrotation Xrotation
				JOINT RightFoot
				{
					OFFSET -2.500000 -6.900000 0.000000
					CHANNELS 3 Zrotation Yrotation Xrotation
					JOINT RightToeBase
					{
						OFFSET -0.200000 -0.500000 1.950000
						CHANNELS 3 Zrotation Yrotation Xrotation
						End Site
						{
							OFFSET 0.000000 0.000000 0.000000
						}
					}
				}
			}
		}
	}
	JOINT LowerBack
	{
		OFFSET 0.000000 0.000000 0.000000
		CHANNELS 3 Zrotation Yrotation Xrotation
		JOINT Spine
		{
			OFFSET -0.087000 1.940000 -0.288900
			CHANNELS 3 Zrotation Yrotation Xrotation
			JOINT Spine1
			{
				OFFSET 0.000000 1.950000 0.060000
				CHANNELS 3 Zrotation Yrotation Xrotation
				JOINT Neck
				{
					OFFSET 0.000000 0.000000 0.000000
					CHANNELS 3 Zrotation Yrotation Xrotation
					JOINT Neck1
					{
						OFFSET 0.000000 1.600000 0.340000
						CHANNELS 3 Zrotation Yrotation Xrotation
						JOINT Head
						{
							OFFSET 0.000000 1.667000 -0.240000
							CHANNELS 3 Zrotation Yrotation Xrotation
							End Site
							{
								OFFSET 0.000000 0.000000 0.000000
							}
						}
					}
				}
				JOINT LeftShoulder
				{
					OFFSET 0.000000 0.000000 0.000000
					CHANNELS 3 Zrotation Yrotation Xrotation
					JOINT LeftArm
					{
						OFFSET 2.700000 1.550000 -0.730000
						CHANNELS 3 Zrotation Yrotation Xrotation
						JOINT LeftForeArm
						{
							OFFSET 5.450000 0.000000 0.000000
							CHANNELS 3 Zrotation Yrotation Xrotation
							JOINT LeftHand
							{
								OFFSET 3.450000 0.000000 0.000000
								CHANNELS 3 Zrotation Yrotation Xrotation
								JOINT LeftHandIndex1
								{
									OFFSET 0.750000 0.000000 0.000000
									CHANNELS 3 Zrotation Yrotation Xrotation
									End Site
									{
										OFFSET 0.000000 0.000000 0.000000
									}
								}
							}
						}
					}
				}
				JOINT RightShoulder
				{
					OFFSET 0.000000 0.000000 0.000000
					CHANNELS 3 Zrotation Yrotation Xrotation
					JOINT RightArm
					{
						OFFSET -2.700000 1.550000 -0.730000
						CHANNELS 3 Zrotation Yrotation Xrotation
						JOINT RightForeArm
						{
							OFFSET -5.450000 0.000000 0.000000
							CHANNELS 3 Zrotation Yrotation Xrotation
							JOINT RightHand
							{
								OFFSET -3.450000 0.000000 0.000000
								CHANNELS 3 Zrotation Yrotation Xrotation
								JOINT RightHandIndex1
								{
									OFFSET -0.750000 0.000000 0.000000
									CHANNELS 3 Zrotation Yrotation Xrotation
									End Site
									{
										OFFSET 0.000000 0.000000 0.000000
									}
								}
							}
						}
					}
				}
			}
		}
	}
}
MOTION
Frames: 6
Frame Time: 0.016667
-1.466190 17.174360 -3.739170 4.299821 6.594843 -13.711887 -15.014466 10.004050 7.061055 36.969041 -8.328156 -14.624770 -74.582545 19.398725 11.311303 1.219091 13.226914 0.697823 -0.307120 -0.695520 -0.489150 19.028940 -10.207561 -0.347167 -33.801707 -6.776553 -3.876730 -18.772977 -4.442461 26.135288 -0.730497 -6.628579 2.077643 -0.132390 1.796700 0.883710 -4.967406 -1.910086 -8.335830 24.482013 -9.700029 20.136690 -6.298911 -11.082929 23.549347 -9.536999 -0.693817 -10.692294 -16.743553 2.140059 49.375965 -5.873520 -1.533730 0.616350 10.089235 -39.189769 -2.809598 -23.719307 -55.027979 0.102215 83.803960 -70.317088 -57.482677 -8.397047 3.339967 0.629970 1.041220 -0.269400 0.493860 5.909275 27.713471 11.667560 36.961046 7.792405 -18.781546 -77.563018 4.672478 -9.710726 1.731773 -1.932177 -0.710300 0.954430 0.737970 0.196230 
-1.187300 17.225560 -3.677860 4.129525 7.929339 -14.359305 -15.015980 10.137874 6.824575 36.716074 -8.146072 -11.805865 -68.551968 17.433413 10.542032 1.077744 13.090433 0.720882 -0.346660 -0.779530 -0.478740 19.019427 -10.108925 -0.274857 -35.149327 -6.865601 -0.269563 -17.794356 -4.962741 24.186243 -0.757928 -6.784197 2.055111 -0.171760 1.794340 0.916920 -4.950243 -2.180004 -8.121229 25.679731 -9.238472 18.006432 -5.689878 -11.886349 23.871032 -9.752356 0.093575 -10.188301 -15.710908 0.735628 48.865432 -8.258070 -1.492650 1.973880 11.026315 -41.074519 -4.083734 -22.570848 -54.322097 -1.531422 84.524963 -70.922540 -55.212405 -8.605267 3.073454 0.643140 1.078890 -0.285990 0.476240 5.195061 28.929883 12.659693 37.883110 5.556421 -19.999973 -79.723201 2.257446 -8.102521 1.762905 -2.003099 -0.730930 0.906820 0.752040 0.161380 
-0.915570 17.245270 -3.612080 3.768775 8.441378 -14.660513 -15.017964 10.256278 6.414924 35.960959 -7.190749 -9.405267 -61.489127 15.989734 10.027054 0.947063 12.845619 0.780032 -0.375000 -0.805200 -0.497910 19.017462 -10.043684 -0.174041 -35.982133 -6.582413 2.532799 -16.275289 -5.448774 22.267214 -0.775932 -6.880589 2.047946 -0.187760 1.800660 0.917970 -4.948640 -2.210507 -7.725405 27.435794 -8.774462 15.423919 -6.574441 -12.480251 23.991800 -9.993072 0.779843 -9.338589 -14.615835 0.202858 47.702340 -8.361920 -1.342340 2.594830 12.090122 -42.248953 -5.295154 -21.233507 -54.404082 -0.828061 89.255110 -73.084199 -55.905376 -8.003629 2.050992 0.625300 1.092720 -0.296120 0.474440 4.655538 29.240867 13.125370 39.964285 4.372133 -20.457569 -81.057874 1.526261 -7.404162 1.777121 -2.033049 -0.733520 0.885700 0.751480 0.165980 
-0.657570 17.254710 -3.546710 3.323263 9.143147 -14.839661 -15.042950 10.417775 6.109438 35.302725 -6.547471 -7.559173 -56.064614 14.690125 9.246900 0.726684 12.691760 0.806229 -0.450780 -0.954270 -0.494870 18.988000 -9.943955 -0.084075 -36.396278 -6.431459 5.057172 -14.586127 -6.020007 20.863069 -0.760582 -7.010835 2.003552 -0.230140 1.831550 0.924800 -4.868985 -2.457352 -7.476279 27.936489 -8.746250 13.416754 -6.570442 -13.260820 24.154639 -10.182282 0.920152 -8.987388 -13.878004 -0.209524 45.991169 -9.344790 -0.990010 3.334750 11.893029 -42.910925 -5.431785 -19.189163 -54.301913 -1.142296 93.731196 -75.038567 -57.393103 -7.674998 1.220014 0.658240 1.129540 -0.358210 0.414270 5.340986 29.319079 13.255065 39.850217 3.913230 -20.664886 -81.520443 2.269901 -8.044909 1.736327 -2.017569 -0.807580 0.874990 0.825450 0.105950 
-0.409530 17.243600 -3.484880 2.661663 9.693770 -14.613847 -15.062351 10.398086 6.050187 35.237964 -6.355015 -6.322304 -54.754929 13.548484 7.629608 0.760834 12.470811 0.867820 -0.420090 -0.907100 -0.458470 18.979457 -9.858849 -0.041194 -36.533473 -6.659906 6.526952 -12.485096 -6.700544 20.071322 -0.810099 -7.063034 1.984236 -0.250720 1.756060 0.965030 -4.826425 -2.522582 -7.403744 28.651124 -9.220985 11.349560 -7.187542 -14.094847 23.609999 -9.247847 0.229739 -9.282908 -14.966507 0.254366 46.078326 -11.328730 -0.301760 3.365560 10.311964 -42.644888 -4.462310 -19.443621 -54.459669 1.053379 96.028298 -75.477039 -59.022355 -7.329721 0.836883 0.639530 1.103230 -0.293520 0.418970 5.453737 29.293441 13.191806 40.650176 4.619002 -20.185380 -81.382340 3.801444 -9.250802 1.746333 -2.025006 -0.727340 0.802980 0.776770 0.121440 
-0.189930 17.241050 -3.432540 2.095544 9.017214 -14.741718 -15.106340 10.576360 6.049238 35.163815 -5.964550 -4.597706 -54.144324 13.037413 6.595380 0.811910 12.223498 0.901153 -0.210760 -0.649080 -0.290570 18.914574 -9.802949 -0.039298 -35.642059 -6.519004 7.105259 -11.723479 -6.700837 19.937922 -0.909019 -6.938147 1.998940 -0.167430 1.525790 0.979640 -4.678100 -2.804485 -7.394827 28.102380 -8.878377 10.962732 -5.771766 -14.112044 23.634680 -8.496329 0.136084 -9.257168 -14.992303 -0.049724 46.185484 -13.164980 0.035740 0.509900 9.091215 -43.738256 -4.378945 -18.445987 -53.926941 0.357889 98.400417 -77.554785 -60.518566 -6.991907 0.509641 0.683539 0.971410 -0.127420 0.464130 5.235290 30.730696 14.062562 40.430016 3.504063 -20.966381 -80.022611 3.900190 -9.741716 1.819140 -2.098558 -0.603690 0.699860 0.588940 0.114820 
